<?xml version="1.0" encoding="UTF-8"?><svg id="a" xmlns="http://www.w3.org/2000/svg" viewBox="0 0 303 112"><defs><style>.b{fill:#040000;}</style></defs><g><path class="b" d="M144.62,81.33c-8.81,1.36-15,.93-19.19,.65,0,0,5.39-1.31,8.55-4.5,1.28-1.29,1.06-3.93-.52-4.24-12.42-2.42-23.83-.37-27.86,.54,.99-1.08,1.7-2.14,2.23-3.13,3.86,.56,9.88,.59,17.72,.4,0,0,12.17-.49,15.55-5.54,1.11-1.66,.39-3.44-.14-4.13-.45-.59-1.38-.92-2.13-.99-1.43-.15-2.26,.19-2.64,.41-.08,.05-.05,.16,.04,.18,.91,.12,1.28,1.18,.88,1.83-.6,.97-2.25,1.56-2.25,1.56-4.21,1.81-11.56,2.33-18.57,1.59l4.43-4.1c.34-.31,.35-.43,.3-.53-.27-.56-3.01-4.72-10.25-6.47h-.13c-.42,.03-2.29,.42-3.99,3.64-.07,.14,.03,.3,.21,.36,1.21,.39,5.59,2.11,7.38,6.85-4.14-.62-7.44-1.73-8.44-3.33-1.52-2.42-.41-6.43,.06-7.85,11.73-1.24,19.45-.85,25.39-.69l3.46,.12c.29,1.66,.05,3.7-2.21,4.99-3.5-3.08-6.3-3.56-6.85-3.62-.06,0-.12,0-.18,.03-2.33,1.01-3.64,2.37-4.06,2.86-.09,.1-.05,.23,.07,.3,.93,.51,4.52,2.67,5.94,6.78,.05,.14,1.3-.58,1.48-.68,2.29-1.23,5.18-3.71,5.18-3.71,.14-.08,.17-.25,.05-.37-.4-.43-.8-.82-1.19-1.18h10.44c.19,0,.34-.14,.34-.3v-7.38s0-.02-.01-.03c0-.67-3.58-1.19-4.64-1.32-1.24-.16-3.01-.35-5.36-.51,.35-.44,2.25-3.09-1.29-5.46,2.73-.22,5.59-.47,8.58-.75,.09,0,.18-.05,.23-.12,1.11-1.56,.67-5.75,.51-6.4-.03-.12-.16-.23-.29-.2-24.16,4.87-42.5,4.58-51.36,4.34-2.39-.07-1.83-.82-1.05-1.37,.23-.17,.04-.42-.27-.41-3.75,.14-5.78,1.6-5.78,1.6-1.51,1.12-.81,2.87-.09,3.37,0,0,.97,.68,2.27,.83,.72,.08,2.03,.19,4.24,.32,.2,1.31,1.04,3.83,4.37,5.08-1.57,.12-3.19,.26-4.85,.41h-.01l-5.92,.58c-.16,0-.29,.12-.29,.26v7.22c0,.14,.13,.26,.29,.26h7.34c.16,0,.3-.12,.3-.26v-2.32c2.16-.39,4.22-.73,6.19-1.03-.41,7.44-11.59,7.26-13.72,7.19-.21,0-.39,.13-.39,.3v6.71c0,.16,.15,.29,.35,.3,2.42,.12,16.77,.13,16.88-15.08,1.29-.18,1.34-.19,2.54-.34-.72,1.34-2.19,6.18-2.03,10.26,.08,2.03,1.82,3.51,3.7,4.41-2.56,2.2-8.17,4.19-20.41,3.26-.29-.02-.52,.18-.47,.4l1.91,7.89c.04,.17,.25,.29,.47,.28,7.74-.54,12.95-2.4,16.46-4.66,1.02,1.28,2.83,3.1,5.88,4.94-9.65,.89-14.93,1.52-23.08,1.1-.44-.02-.73-.1-.98,.53l-2.49,5.14c-.39,.78-.38,1,.91,1,11.64,0,24.16-1.83,33.85-4.11,6.29,2.06,14.14,3.96,26.32,3.98,.12,0,.25-.11,.29-.22l2.24-7.42c.11-.3-.18-.4-.35-.37m-22.14-36.32c4.32,1.38,2.77,3.9,2.39,4.42-2.05-.03-4.32-.04-6.82-.01,.29-.85,.62-2.74-1.45-4.07,1.87-.09,3.82-.2,5.87-.33m-19.56,4.96c.98-.49,1.57-.92,1.57-.92-3.83-.58-4.89-2.03-5.04-3.25,2.4,0,5.1-.03,8.14-.11,1.94,1.19,2.11,2.83,1.93,3.95-2.08,.08-4.28,.19-6.59,.33m3.84,26.41s-.01-.06,.02-.06c.97-.15,10.68-1.48,18.48-.33,.98,.14,.79,.23,.62,.4-2.36,2.48-9.81,4.28-9.81,4.28-4.01-1.19-7.27-2.85-9.3-4.3"/><path class="b" d="M17.33,70.83c-1.26,7.69-13.27,7.28-15.76,7.2-.24,0-.45,.15-.45,.36v7.68c0,.19,.18,.35,.41,.36,2.83,.14,19.42,1.56,19.42-15.57h-3.61Z"/><path class="b" d="M29.78,36.61c-1.83,.87-2.57,3.24-1.76,5.09,.24,.55,.55,1.18,.93,1.85,.02,.04,.05,.09,.08,.13-14.4,.37-23.3-1.03-23.3-1.03-.11,0-.19,.09-.26,.18-.41,.54-1.25,2.12-1.1,4.51,0,.15,.13,.2,.28,.25,0,0,6.01,1.21,20.23,1.53v7.53s.49,11.25-3.28,11.44c1.44,1,7.8,2.33,9.85-2.4,.97-2.25,.95-9.04,.95-9.04l.07-7.46c1.25,0,2.54-.01,3.89-.03v19.34c0,.42,.12,.38,.26,.38h7c.15,0,.26,.04,.26-.38v-19.5c5.36-.17,11.34-.45,17.97-.88,.09,0,.18-.05,.24-.13,1.19-1.85,1.04-6.97,.93-7.77-.02-.15-.14-.29-.28-.26-9.15,1.79-17.6,2.8-25.05,3.32l-.49-.6c-2.09-2.34-1.57-4.13-.48-4.57,.75-.3,1.02-.09,.12-.55-3.46-1.73-5.7-1.63-7.14-.94"/><path class="b" d="M3.2,71.1c3.48,.17,17.74,.53,17.74-21.24h-4.45c0,12.08-10.18,11.37-13.24,11.28-.3,0-.55,.18-.55,.42v9.13c0,.22,.22,.41,.5,.42"/><path class="b" d="M49.99,68.08c-.14-.06-.25-.07-.42,.04l-5.19,3.36c-.19,.09-.15,.32,.05,.37,1.61,.36,3.19,1.69,4.24,3.91,1.57,4.36-4.45,6.92-10.69,7.52l4.95-4.73c.34-.33,.36-.45,.31-.55-2.67-5.01-8.87-7.11-9.98-7.44-.15-.04-.31-.03-.44,.04-.88,.45-2.27,1.41-4.05,4.46-.08,.14,.03,.32,.21,.37,1.28,.43,6.11,2.4,7.7,7.96-4.71,.25-9.27-.62-10.48-2.68-1.87-3.19,.63-9.22,.84-9.82,0-.02-.02-.04-.05-.04h-3.44c-.14,.25-1.69,3.96-2.55,7.95-1.09,5.07,2.4,10.06,7.55,10.65,0,0,3.13,.57,8.71,.33,12.13-.53,19.81-5.08,19.81-12.63,0-4.97-5.06-8.28-7.07-9.07"/><path class="b" d="M62.97,72.1c-.1-.1-.25-.15-.39-.14-2.48,.16-4.17,1.09-4.75,1.45-.07,.05-.17,.17-.1,.28,.47,.77,3.13,7.86,1.47,12.7-.03,.09,.06,.18,.18,.19,1.09,.02,6.04-.61,8.51-2.46,.05-.03,.07-.08,.07-.13,.22-5.6-3.96-10.91-4.99-11.88"/><path class="b" d="M52.96,49.51l-5.11,.35c0,23.37,14.26,20.74,17.74,20.57,.28-.01,.5-.2,.5-.42v-6.64c0-.24-.25-.43-.55-.42-3.06,.1-12.57,1.07-12.57-13.44"/><path class="b" d="M200.08,36.47c-.1,.03-.19,.15-.16,.29l.31,5.17-6.98,.4h-.12s-1.42,4.4-.56,18.18l28.92-.58s1.67-3.82,.81-17.61h-.04c-.02-.15-.3-.39-.3-.39h-8.44l.27-5c.02-.14-.06-.26-.16-.29-.54-.15-3.97-.55-5.26,.56-.06,.05-.09,.24-.1,.34l.17,4.78h-3.09l.09-4.55c0-.09-.04-.29-.1-.34-1.29-1.11-4.72-.71-5.25-.56m-3.14,10.2s1.47-.07,3.63-.16l.19,2.71-4.07,.11s-.05,.02-.07,.03c.06-1.01,.17-1.95,.31-2.69m.32,8.71c-.31-.73-.5-1.7-.6-2.76l4.34-.03,.21,2.86c-1.48,0-2.84-.02-3.95-.06m15.97-9.15c1.13,.01,2.14,.04,2.95,.1,.31,.65,.51,1.5,.63,2.44l-3.75,.11,.17-2.64Zm-.39,6.39l4.1-.03c-.05,.97-.15,1.87-.28,2.57,0,0-1.62,.07-3.98,.16l.17-2.7Zm-7.62-6.27c1.12-.03,2.27-.06,3.41-.08l.12,2.73-3.59,.1,.07-2.75Zm-.16,6.27l3.84-.03,.12,2.79c-1.3,.04-2.67,.07-4.03,.1l.07-2.85Z"/><path class="b" d="M183.75,61.34h-15.67c-.59,0-.78,.29-.78,.92,0,8.38,.91,16.85-9.21,21.35-.08,.03-.15,.07-.21,.11-.11,.07-.14,.22-.08,.33l3,5.31c.1,.2,.15,.39,.32,.33,3.37-1.08,6.91-3.38,8.86-7.76l7.37,.08c-.06,2.86-.49,4.32-1.81,7.05-.07,.14-.44,.8,.36,.8h7.99c.14,0,.25-.15,.25-.33v-26.57c0-.75-.03-1.21-.06-1.48-.02-.22-.18-.38-.37-.38m-5.91,15.69h-5.96c.23-.67,.33-1.88,.44-2.77l5.52,.06v2.71Zm.4-7.53h-5.59c.02-.7,.03-1.7,.03-2.41l5.56-.1v2.51Z"/><path class="b" d="M185.52,53.31c2.48-4.59,2.58-11.44-1.66-13.65-6.28-3.28-11.58,.66-13.87,2.79,0-2.07-.06-3.44-.06-3.44,.03-.19-.07-.36-.18-.4-.6-.21-4.93,.07-5.76,1.1-.22,.28-.4,.86-.11,4.39l.8,10.25c-.81-.05-1.34-.38-1.61-.62-.1-.08-.22,0-.23,.15-.08,1.05,.12,5.61-6.16,8.06-.52,.2-.22,.43-.08,.62l4.17,4.36c.46,.62,1.19,.7,1.72,.19,1.26-1.23,3.84-3.64,5.12-8.54l17.22-.17c.14,0,.28,0,.4,0,.01,2.16-.12,4.64-.64,6.61-.04,.15,.1,.3,.22,.3l5.15-.03c.16,0,.29-.1,.33-.25,1.15-5.02,.34-10.6,.34-10.6v-.03c-.1-.63-.68-1.09-1.35-1.09-.97,0-2.61,0-3.6,0m-11.41-6.84h-.08s-.69,.84-.5,6.94l-4.53,.21c.42-2.41,.67-5.07,.82-7.37,.91-1.4,3.27-4.21,7.9-3.46,2.37,.38,3.32,1.4,3.92,3.11l-7.53,.56h0Zm7.04,6.67l-3.88,.13c-.38-2.66,.13-3.34,.13-3.34l4.59-.34c-.12,1.22-.43,2.45-.85,3.55"/><path class="b" d="M221.63,61.85l-28.99,.63c-.11,0-.17,.09-.24,.18-.36,.52-.97,1.76-.67,4.01,.02,.14,.14,.19,.28,.22l29.13-.11c.09,0,.18-.04,.22-.1,1.07-1.24,.69-4.15,.54-4.67-.03-.1-.15-.18-.28-.16"/><path class="b" d="M224.71,83.79c-2.98,.37-7.88,.85-10.42,1.1,.97-1.12,1.78-3.15,2.21-4.39l2.73-.11c.15-.01,.35-.03,.42-.18,1.26-1.67,1.91-3.74,1.8-5.22-.1-1.33-.78-2.44-1.56-3.3-1.22-1.35-2.89-2.19-4.68-2.55-4.79-.97-10.67-.46-13.82,.58-1.35,.45-2.59,1.07-3.53,1.68l-.09-2.12c-.02-.31-.09-.36-.38-.44-.83-.22-3.04-.12-5.28,.39-.28,.06-.49,.19-.6,.37-.08,.13-.11,.29-.07,.46l1.78,10.34c.04,.22,.23,.37,.45,.37,.23,0,.4,0,.9,0h1.89c.53,1.28,1.44,3.27,2.5,4.7-6.62-.05-10.16-.64-10.16-.64-.1,0-.17,.08-.23,.16-.38,.49-1.14,2.25-1,4.42,0,.13,.08,.2,.25,.22,0,0,5.11,.44,36.41,.08,.09,0,.17-.04,.22-.12,1.09-1.68,.61-4.82,.5-5.55-.02-.14-.12-.25-.25-.24m-16.3,1.03c-.97,.14-2.14,.16-3.09,.15-1.58-1.93-2.24-3.55-2.51-4.61l7.82-.03c-.41,1.25-1.15,3.16-2.21,4.49m-10.32-8.26l-.07-1.68c3.39-1.68,7.04-2.8,12.56-2.27,2.12,.2,3.67,.95,3.92,2.1,.11,.51-.04,1.02-.42,1.45l-15.99,.4Z"/><path class="b" d="M256.89,55.61l-18.29,.67c-.11,0-.18,.1-.25,.19-.39,.56-1.14,2.21-.83,4.62,.02,.15,.15,.2,.3,.24h18.56c.1,0,.19-.04,.24-.1,1.13-1.34,.73-4.9,.57-5.45-.03-.1-.16-.19-.29-.17"/><path class="b" d="M245.34,36.89c-1.49,1.02-2.41,2.18-2.93,2.86-.34,.44-.61,.91-.78,1.41-.59,1.79,.46,2.44,1.52,2.66,0,0,1.31,.28,3.1,.23,2.34-.06,4.68-.19,6.95-.63,.18-.04,.33-.14,.4-.29,.24-.56,.76-2.12,.4-4.64-.03-.25-.31-.42-.61-.4l-3.08,.28c-3.43,.31-4.42-.34-4.47-1.22-.03-.6,.22-.75-.49-.27"/><path class="b" d="M258.23,46.04c-.05-.12-.22-.18-.38-.17l-14.6,.86c-3.77,.21-5.13-.88-5.06-1.84,.05-.66,.42-.74-.53-.34-1.01,.43-1.37,.81-1.79,1.22,0,0-1.62,1.72-1.63,3.31-.01,1.86,1.48,2.99,3.35,3.13,4.74,.36,13.97-.25,19.92-.63,.2-.01,.28-.16,.35-.3,.68-1.26,1.11-3.35,.36-5.25"/><path class="b" d="M256.89,64.33l-18.29,.67c-.11,0-.18,.1-.25,.19-.39,.56-1.14,2.21-.83,4.62,.02,.15,.15,.2,.3,.24h18.56c.1,0,.19-.04,.24-.1,1.13-1.34,.73-4.9,.57-5.45-.03-.1-.16-.19-.29-.17"/><path class="b" d="M270.54,67.33c.09,0,.16,.08,.15,.17-1.46,15.82-11.44,15.03-12.27,15.02-.22,0-.4-.15-.39-.32l.14-7.71c0-.31,.05-.37,.44-.37,2.72,0,6.55,.1,7.78-6.71,.01-.07,.08-.13,.15-.13l4.01,.04Z"/><path class="b" d="M280.63,64.92c-.11-.07-.24-.09-.37-.09-.57,.03-2.01,.36-4.53,2.56-.16,.14-.11,.23,.07,.39,1.25,1.11,3.23,3.51,4.17,9.73,.04,.24,.26,.33,.5,.19l6.83-3.77c.41-.23,.53-.26,.45-.44-.56-1.34-2.91-5.92-7.13-8.57"/><path class="b" d="M303.17,76.3c-4.59-6.79-10.17-10.26-10.76-10.31-.06,0-.11,0-.16,.03-2.09,1.1-3.52,2.38-3.88,2.88-.07,.1-.03,.21,.08,.29,1.46,1.08,4.45,4.2,6.81,8.19l-6.14-1.03c-.05-.01-.09,.02-.09,.07-.31,4.95-2.73,6.97-8.4,6.97-4.32,0-5.89-1.28-5.7-5.61,.18-4.15,.78-6.77,1.05-7.92,.02-.09-.04-.18-.15-.2h-3.62c-.11-.02-.22,.03-.25,.11,0,0-2.54,5.69-2.54,12.02,0,0-.29,6.84,6.17,7.83,1.46,.23,4.55,.35,8.44,.19,7.08,0,11.2-4.33,12-11.04,.36,.71,.69,1.45,.97,2.2,.04,.1,.15,.14,.26,.1,.92-.4,4.79-2.1,5.93-4.63,.02-.05,0-.1-.02-.14"/><path class="b" d="M238.63,88.42c.01,.16,.11,.22,.22,.26l16.1-.13c.07,0,.14-.04,.18-.11,1.51-3.12,2.03-6.81,2.19-8.3,.04-.42,.07-.83,.05-1.25-.11-1.99-.87-3.62-2.25-4.86-1.81-1.62-4.41-2.08-6.07-2.08-2.7,0-4.75,1-6.26,2.27-.03-.7-.05-1.09-.05-1.09,.02-.17-.06-.32-.15-.36-.45-.17-3.85-.13-5.05,.44-.21,.1-.34,.42-.31,.74l1.4,14.47Zm12.63-4.49c-.09,.21-.36,.39-.59,.39l-7.36,.17c-.13-2.33-.24-4.5-.33-6.29,1.63-.93,4.02-1.81,6.47-.96,.53,.18,1.03,.46,1.43,.84,.91,.86,1.63,2.73,.37,5.85"/><path class="b" d="M272.46,57.28c-1.02,.53-2.51,.71-3.54,.72-1.25,0-4.06,.09-4.06,.09-.12,0-.14,.06-.2,.14-.3,.41-.91,3.25-.5,5.3,.02,.11,.1,.15,.22,.18,0,0,11.45,.14,30.89-.42,.14,0,.3-.07,.36-.25,.58-1.84,.6-4.99,.5-5.58-.02-.11-.11-.2-.22-.19l-16.28,.37c3.28-1.75,3.74-6.51,3.74-6.51,3.39-.01,7.96,.13,13.73-.02,.09,0,.17-.05,.22-.12,1.08-1.65,.69-5.79,.57-6.5-.02-.13-.13-.24-.26-.22-4.12,.58-9.03,1.07-14.16,1.19l.23-8.24c0-.63-.08-.64-.61-.7-.48-.06-6.66-.05-7.35,.27-.14,.07-.2,.24-.19,.52,0,0,.32,3.26,.48,8.2-7.67,.18-13.47,0-13.47,0-.1,0-.17,.08-.24,.16-.37,.48-.96,2.98-.64,5.5,.02,.13,.12,.16,.26,.21,0,0,.1,.18,14.04-.1,0,0-.42,4.37-3.56,5.99"/><path class="b" d="M4.49,12.96c1.12,.95,2.54,1.64,4.22,2.06,1.73,.42,3.63,.8,5.65,1.1,2.02,.31,3.92,.52,5.65,.64,1.77,.12,3.27,.34,4.46,.66,.51,.13,2.06,.54,2.06,1.61,0,.82-.84,1.45-2.57,1.9-1.54,.4-3.49,.61-5.79,.61-2.76,0-5.46-.19-8.02-.57-2.59-.38-4.23-.67-5.02-.89-.45-.12-.83-.24-1.18-.35-.03,0-.07,.02-.07,.07v6.72c0,.25,.2,.46,.46,.47l13.83,.53c5.07,0,9.14-.85,12.11-2.53,2.94-1.66,4.37-3.93,4.37-6.94,0-1.3-.53-2.36-1.62-3.24-1.12-.9-2.54-1.56-4.22-1.96-1.72-.41-3.62-.75-5.65-1.02-2.02-.27-3.93-.48-5.66-.62-1.77-.14-3.27-.38-4.47-.71-.51-.14-2.05-.57-2.05-1.64,0-1.86,2.35-2.76,7.19-2.76,2.86,0,5.6,.18,8.14,.55,2.57,.37,4.2,.66,4.96,.89,.38,.12,.72,.23,1,.33,.01,0,.02,0,.03,0,.04,0,.1-.03,.1-.1V.85c0-.11-.09-.2-.2-.2L18.17,.06C13.11,.06,9.24,.9,6.66,2.55c-2.56,1.64-3.8,3.94-3.8,7.03,0,1.34,.53,2.45,1.62,3.38"/><path class="b" d="M64.54,.73c-.3,0-.57,.17-.7,.43-1.45,2.93-3.15,5.77-5.07,8.42l-1.39,1.98c-.07,.11-.2,.17-.33,.17h0c-.13,0-.25-.06-.33-.16l-1.5-1.99c-1.89-2.66-3.58-5.49-5.02-8.42-.13-.26-.4-.43-.7-.43h-11.76s0,.04,0,.04c2.41,2.44,4.63,5.08,6.6,7.84l8.5,11.79c.05,.07,.07,.14,.07,.22,0,2.62-.34,4.86-1,6.65h10.26l-.16-.54c-.21-.68-.41-1.62-.61-2.82-.19-1.19-.29-2.3-.29-3.29,0-.08,.03-.16,.07-.22l9.53-13.25c1.66-2.3,3.52-4.45,5.54-6.41,0-.02-.01-.02-.02-.02h-11.7Z"/><path class="b" d="M106.75,24.99c2.94-1.66,4.37-3.93,4.37-6.94,0-1.3-.53-2.36-1.62-3.24-1.12-.9-2.54-1.56-4.22-1.96-1.72-.41-3.62-.75-5.65-1.03-2.02-.27-3.93-.48-5.66-.62-1.77-.14-3.27-.38-4.46-.71-.51-.14-2.05-.57-2.05-1.64,0-1.86,2.35-2.76,7.19-2.76,2.86,0,5.6,.18,8.14,.55,2.57,.37,4.2,.66,4.96,.89,.33,.1,.62,.2,.88,.29,.02,0,.05,.01,.07,.01,.09,0,.19-.07,.19-.18V1.4c0-.41-.33-.75-.76-.77L94.63,.06c-5.06,0-8.94,.84-11.51,2.49-2.56,1.64-3.8,3.94-3.8,7.03,0,1.34,.53,2.44,1.62,3.37,1.12,.95,2.54,1.65,4.22,2.06,1.73,.42,3.63,.8,5.65,1.1,2.02,.31,3.92,.52,5.65,.64,1.77,.12,3.27,.34,4.46,.66,.51,.13,2.06,.54,2.06,1.61,0,.82-.84,1.45-2.57,1.9-1.54,.4-3.49,.61-5.79,.61-2.76,0-5.46-.19-8.02-.57-2.59-.38-4.23-.67-5.02-.89-.38-.1-.72-.2-1.01-.29-.02,0-.04,0-.06,0-.09,0-.18,.07-.18,.18v6.28c0,.41,.34,.75,.76,.77l13.53,.52c5.07,0,9.14-.85,12.11-2.53"/><path class="b" d="M114.42,8.09l.67-.2c.86-.25,2.23-.5,4.17-.74,1.92-.24,4.02-.37,6.24-.37,.23,0,.41,.18,.41,.39v6.83c0,4.37-.38,8.83-1.12,13.27h10.57l-.19-1.22c-.17-1.15-.36-2.74-.57-4.84-.21-2.08-.33-4.08-.37-5.96V7.17c0-.22,.18-.39,.41-.39,2.3,0,4.47,.14,6.45,.42,2.02,.28,3.29,.5,3.87,.66,.29,.08,.54,.15,.75,.22V.73h-31.3v7.37Z"/><path class="b" d="M159.8,7.18c.38-1.46,.8-2.65,1.25-3.53,.45-.88,.99-1.71,1.59-2.48,.44-.56,.78-.97,1.03-1.23h-7.81l-.04,.05c-.14,.18-.25,.36-.34,.54-.14,.27-.3,.62-.47,1.05-.26,.65-.53,1.44-.8,2.34-.26,.89-.49,2.04-.67,3.44-.17,1.29-.26,2.66-.28,4.07h5.98c.03-1.47,.22-2.89,.57-4.24"/><path class="b" d="M167.85,26.87l10.46,.4c.18,0,.33-.13,.36-.32l.35-2.04c.12-.77,.46-1.44,1.02-1.97,.57-.54,1.25-.82,2.04-.82h7.93c.75,0,1.41,.27,1.98,.82,.56,.53,.92,1.19,1.07,1.97l.31,2.03c.03,.19,.18,.33,.37,.33h10.53s.06-.02,.07-.04c.02-.04,0-.06,0-.07-1.52-2.14-2.82-4.44-3.84-6.86L192.33,1.03c-.08-.18-.26-.3-.46-.3h-11.75c-.2,0-.38,.12-.46,.3l-8.57,20.27c-.87,2.04-1.98,3.94-3.3,5.67,0,0-.03,.04,0,.07,.01,.03,.04,.04,.07,.04m13.6-11.39l1.73-5.64c.07-.32,.17-.58,.29-.81,.55-1.03,1.32-1.65,2.51-1.65,1.4,0,2.42,.85,2.76,2.07l1.77,6.03c.03,.12,0,.24-.07,.34-.08,.1-.19,.15-.32,.15h-8.28c-.13,0-.24-.06-.32-.15-.08-.1-.1-.22-.07-.34"/><path class="b" d="M209.65,2.16c.17,1.28,.36,3.09,.57,5.36,.21,2.28,.31,4.45,.31,6.47,0,4.26-.36,8.62-1.06,12.94-.02,.11,.03,.19,.07,.23,.03,.04,.1,.1,.22,.1h9.75c.12,0,.19-.06,.22-.1,.03-.04,.09-.12,.07-.23l-.18-1.15c-.21-1.27-.41-3.06-.6-5.32-.19-2.28-.28-4.45-.28-6.47,0-4.27,.36-8.62,1.06-12.94,.02-.11-.03-.19-.07-.23-.03-.04-.1-.1-.22-.1h-9.75c-.12,0-.19,.06-.22,.1-.03,.04-.09,.12-.07,.23l.18,1.11Z"/><path class="b" d="M236.79,27.17s.08-.11,.07-.22l-.18-1.15c-.87-6.56-.48-12.4-.48-12.4,0-.18,.13-.34,.32-.38,.03,0,.06,0,.08,0,.16,0,.3,.09,.37,.23l5.36,13.3c.2,.44,.5,.72,1.15,.72h5.91c.7,0,.95-.29,1.16-.73l5.44-13.4c.07-.14,.21-.23,.37-.23,.03,0,.06,0,.08,0,.19,.04,.32,.2,.32,.38,0,4.27,.02,9.32-.66,13.65-.02,.11,.03,.19,.07,.22,.03,.04,.1,.09,.21,.09h9.09c.2,0,.47,0,.61-.15,.13-.15,.11-.41,.08-.61l-.1-.72c-.86-6.68-1.07-11.8-1.07-11.8,0-4.11,.33-8.3,.98-12.47,.03-.2-.03-.4-.17-.56-.14-.16-.34-.25-.56-.25h-10.37c-.61,0-.92,.28-1.12,.7l-6.92,16.1c-.06,.14-.21,.23-.37,.23h0c-.16,0-.3-.09-.37-.23l-6.97-16.1c-.19-.43-.36-.7-1.12-.7h-10.26c-.21,0-.42,.09-.56,.25-.14,.16-.2,.36-.17,.57l.1,.62c.17,1.28,.36,3.09,.57,5.36,.21,2.28,.31,4.45,.31,6.47,0,4.12-.27,8.33-.93,12.5-.03,.19-.06,.49,.08,.64,.13,.15,.41,.13,.61,.13h8.78c.11,0,.18-.06,.22-.1"/><path class="b" d="M273.94,7.27c.2,2.26,.31,4.43,.31,6.43,0,4.17-.34,8.42-1.02,12.65-.02,.13,.02,.27,.11,.37,.09,.1,.22,.16,.35,.16h26.55c.21,0,.38-.17,.38-.37v-6.57c-2.09,.92-5.27,1.39-9.46,1.39h0c-4.57,0-8.77-.57-8.81-.58-.2-.03-.34-.19-.34-.39v-3.4c0-.21,.18-.38,.4-.38h15.45v-5.15h-15.45c-.22,0-.4-.18-.4-.39v-3.83c0-.2,.15-.36,.34-.39,.05,0,4.94-.67,9.8-.67,3.96,0,6.8,.43,8.47,1.29V1.1c0-.2-.17-.37-.38-.37h-26.55c-.14,0-.27,.06-.36,.16-.09,.1-.13,.23-.11,.36l.15,.9c.17,1.28,.35,3.02,.56,5.32"/></g><g><path d="M6.6,111.99c-1.69,0-3.04-.57-4.06-1.71-1.03-1.15-1.54-2.71-1.54-4.69s.52-3.53,1.54-4.66c1.01-1.08,2.36-1.63,4.06-1.63s3.05,.55,4.06,1.64c1.03,1.13,1.54,2.67,1.54,4.63s-.51,3.55-1.54,4.69-2.38,1.72-4.07,1.72Zm0-2.53c.81,0,1.45-.35,1.91-1.05,.47-.69,.71-1.63,.71-2.83s-.23-2.09-.7-2.76c-.47-.67-1.1-1-1.91-1s-1.45,.33-1.91,.99c-.46,.66-.69,1.59-.69,2.77s.23,2.14,.7,2.83c.47,.7,1.1,1.04,1.9,1.04Z"/><path d="M16.18,111.85c-.95,0-1.48-.03-1.58-.08,.13-1.24,.2-2.88,.2-4.93v-7.3h2.99l3.04,5.85,1.2,2.71h.08s0-.08-.02-.15c-.25-1.97-.38-3.43-.38-4.37v-2.02c0-.8-.03-1.47-.08-2.02,.04-.05,.54-.08,1.48-.08s1.46,.03,1.53,.08c-.09,.81-.13,1.83-.13,3.06v9.17h-2.99l-3.02-5.9-1.2-2.68h-.08c.02,.24,.06,.62,.11,1.13,.17,1.53,.26,2.66,.26,3.38v2.04c0,.8,.03,1.47,.08,2.02-.04,.05-.54,.08-1.5,.08Z"/><path d="M35.37,111.93c-1.06-.11-2.34-.16-3.85-.16h-3.84v-12.22h2.94v9.76h2.38c.79,0,1.58-.03,2.37-.1,.03,.04,.05,.49,.05,1.34s-.02,1.31-.05,1.39Z"/><path d="M37.82,111.76v-12.22h2.94v12.22h-2.94Z"/><path d="M45.28,111.85c-.95,0-1.48-.03-1.58-.08,.13-1.24,.2-2.88,.2-4.93v-7.3h2.99l3.04,5.85,1.2,2.71h.08s0-.08-.02-.15c-.25-1.97-.38-3.43-.38-4.37v-2.02c0-.8-.03-1.47-.08-2.02,.04-.05,.54-.08,1.48-.08s1.46,.03,1.53,.08c-.09,.81-.13,1.83-.13,3.06v9.17h-2.99l-3.02-5.9-1.2-2.68h-.08c.02,.24,.06,.62,.11,1.13,.17,1.53,.26,2.66,.26,3.38v2.04c0,.8,.03,1.47,.08,2.02-.04,.05-.54,.08-1.5,.08Z"/><path d="M64.72,111.93c-1.1-.11-2.42-.16-3.96-.16h-1.99c-.78,0-1.44,.03-1.99,.08-.09,0-.13-.03-.13-.08,.1-.42,.14-1.25,.13-2.51v-6.65c0-1.23-.04-2.25-.13-3.06,0-.05,.04-.08,.13-.08,.53,.06,1.17,.08,1.94,.08h1.94c1.16,0,2.45-.05,3.88-.16,.03,.08,.05,.53,.05,1.36s-.02,1.28-.05,1.33c-.59-.07-1.39-.1-2.4-.1h-2.42v2.27h2.05c.61,0,1.29-.03,2.04-.08,.03,.04,.05,.48,.05,1.31s-.02,1.27-.05,1.31c-.57-.05-1.25-.08-2.04-.08h-2.05v2.6h2.5c.71,0,1.54-.04,2.5-.11,.03,.05,.05,.51,.05,1.36s-.02,1.31-.05,1.39Z"/><path d="M75.35,111.99c-.82,0-1.62-.15-2.4-.44-.83-.31-1.56-.74-2.17-1.31l1.66-2.02c.45,.37,.93,.67,1.45,.9,.55,.23,1.06,.34,1.53,.34,1.06,0,1.59-.36,1.59-1.07,0-.3-.14-.54-.41-.74-.18-.13-.54-.32-1.1-.56-.1-.03-.17-.06-.21-.08l-1.56-.66c-.72-.28-1.3-.68-1.73-1.2-.5-.61-.76-1.33-.76-2.15,0-1.04,.42-1.91,1.25-2.61,.84-.72,1.91-1.08,3.19-1.08,.72,0,1.43,.14,2.12,.41,.71,.27,1.33,.67,1.86,1.2l-1.46,1.84c-.82-.62-1.66-.94-2.51-.94-.46,0-.82,.09-1.08,.26-.26,.18-.39,.43-.39,.76,0,.29,.15,.53,.46,.74,.21,.13,.61,.32,1.22,.56,.08,.03,.14,.05,.18,.07l1.53,.61c1.61,.65,2.42,1.76,2.42,3.35,0,1.06-.41,1.96-1.22,2.68-.88,.77-2.03,1.15-3.45,1.15Z"/><path d="M82.38,111.76v-12.22h2.94v4.65h4.03v-4.65h2.91v12.22h-2.91v-5.03h-4.03v5.03h-2.94Z"/><path d="M100.47,111.99c-1.69,0-3.04-.57-4.06-1.71-1.03-1.15-1.54-2.71-1.54-4.69s.52-3.53,1.54-4.66c1.01-1.08,2.36-1.63,4.06-1.63s3.05,.55,4.06,1.64c1.03,1.13,1.54,2.67,1.54,4.63s-.51,3.55-1.54,4.69-2.38,1.72-4.07,1.72Zm0-2.53c.81,0,1.45-.35,1.91-1.05,.47-.69,.71-1.63,.71-2.83s-.23-2.09-.7-2.76c-.47-.67-1.1-1-1.91-1s-1.45,.33-1.91,.99c-.46,.66-.69,1.59-.69,2.77s.23,2.14,.7,2.83c.47,.7,1.1,1.04,1.9,1.04Z"/><path d="M108.67,111.76v-9.17c0-1.23-.04-2.25-.13-3.06,0-.07,.04-.1,.13-.1,.53,.07,1.24,.1,2.14,.1h2.15c1.49,0,2.65,.28,3.47,.85,.96,.67,1.45,1.71,1.45,3.12s-.48,2.44-1.45,3.19c-.87,.67-1.99,1-3.39,1h-1.43v4.06h-2.94Zm2.94-6.38h1.28c1.41,0,2.12-.62,2.12-1.87,0-.59-.19-1.02-.57-1.3-.35-.24-.89-.36-1.63-.36h-1.2v3.53Z"/></g></svg>